<mxfile host="65bd71144e">
    <diagram name="02" id="YMj1xpAl_SfOTKT0soET">
        <mxGraphModel dx="933" dy="971" grid="1" gridSize="10" guides="1" tooltips="1" connect="1" arrows="1" fold="1" page="1" pageScale="1" pageWidth="1169" pageHeight="827" math="0" shadow="0">
            <root>
                <mxCell id="ML3krrQk0YiTmpszw3Px-0"/>
                <mxCell id="ML3krrQk0YiTmpszw3Px-1" parent="ML3krrQk0YiTmpszw3Px-0"/>
                <mxCell id="ML3krrQk0YiTmpszw3Px-4" value="地図&lt;div&gt;～マズローの欲求五段階説～&lt;/div&gt;" style="text;html=1;align=center;verticalAlign=middle;whiteSpace=wrap;rounded=0;fillColor=#dae8fc;strokeColor=#6c8ebf;" parent="ML3krrQk0YiTmpszw3Px-1" vertex="1">
                    <mxGeometry x="81.25999999999999" y="110" width="200" height="40" as="geometry"/>
                </mxCell>
                <mxCell id="0" value="" style="triangle;whiteSpace=wrap;html=1;rotation=-90;" vertex="1" parent="ML3krrQk0YiTmpszw3Px-1">
                    <mxGeometry x="81.26" y="161.26" width="277.49" height="280" as="geometry"/>
                </mxCell>
                <mxCell id="1" value="" style="endArrow=none;dashed=1;html=1;dashPattern=1 3;strokeWidth=2;" edge="1" parent="ML3krrQk0YiTmpszw3Px-1">
                    <mxGeometry width="50" height="50" relative="1" as="geometry">
                        <mxPoint x="190" y="230" as="sourcePoint"/>
                        <mxPoint x="250" y="230" as="targetPoint"/>
                    </mxGeometry>
                </mxCell>
                <mxCell id="2" value="自己実現欲求" style="text;html=1;align=center;verticalAlign=middle;whiteSpace=wrap;rounded=0;" vertex="1" parent="ML3krrQk0YiTmpszw3Px-1">
                    <mxGeometry x="340" y="190" width="110" height="30" as="geometry"/>
                </mxCell>
                <mxCell id="3" value="" style="endArrow=none;dashed=1;html=1;dashPattern=1 3;strokeWidth=2;" edge="1" parent="ML3krrQk0YiTmpszw3Px-1">
                    <mxGeometry width="50" height="50" relative="1" as="geometry">
                        <mxPoint x="160" y="280" as="sourcePoint"/>
                        <mxPoint x="280" y="280" as="targetPoint"/>
                    </mxGeometry>
                </mxCell>
                <mxCell id="4" value="社会的欲求" style="text;html=1;align=center;verticalAlign=middle;whiteSpace=wrap;rounded=0;" vertex="1" parent="ML3krrQk0YiTmpszw3Px-1">
                    <mxGeometry x="340" y="290" width="110" height="30" as="geometry"/>
                </mxCell>
                <mxCell id="5" value="精神的&lt;div&gt;欲求&lt;/div&gt;" style="text;html=1;align=center;verticalAlign=middle;whiteSpace=wrap;rounded=0;fillColor=#dae8fc;strokeColor=#6c8ebf;" vertex="1" parent="ML3krrQk0YiTmpszw3Px-1">
                    <mxGeometry x="460" y="160" width="50" height="170" as="geometry"/>
                </mxCell>
                <mxCell id="6" value="物質的&lt;div&gt;欲求&lt;/div&gt;" style="text;html=1;align=center;verticalAlign=middle;whiteSpace=wrap;rounded=0;fillColor=#f8cecc;strokeColor=#b85450;" vertex="1" parent="ML3krrQk0YiTmpszw3Px-1">
                    <mxGeometry x="460" y="340" width="50" height="100" as="geometry"/>
                </mxCell>
                <mxCell id="7" value="承認欲求" style="text;html=1;align=center;verticalAlign=middle;whiteSpace=wrap;rounded=0;" vertex="1" parent="ML3krrQk0YiTmpszw3Px-1">
                    <mxGeometry x="340" y="240" width="110" height="30" as="geometry"/>
                </mxCell>
                <mxCell id="8" value="安全の欲求" style="text;html=1;align=center;verticalAlign=middle;whiteSpace=wrap;rounded=0;" vertex="1" parent="ML3krrQk0YiTmpszw3Px-1">
                    <mxGeometry x="340" y="350" width="110" height="30" as="geometry"/>
                </mxCell>
                <mxCell id="9" value="生理的欲求" style="text;html=1;align=center;verticalAlign=middle;whiteSpace=wrap;rounded=0;" vertex="1" parent="ML3krrQk0YiTmpszw3Px-1">
                    <mxGeometry x="340" y="398.5" width="110" height="30" as="geometry"/>
                </mxCell>
                <mxCell id="10" value="" style="endArrow=none;dashed=1;html=1;dashPattern=1 3;strokeWidth=2;entryX=0.36;entryY=0.815;entryDx=0;entryDy=0;entryPerimeter=0;" edge="1" parent="ML3krrQk0YiTmpszw3Px-1" target="0">
                    <mxGeometry width="50" height="50" relative="1" as="geometry">
                        <mxPoint x="130" y="340" as="sourcePoint"/>
                        <mxPoint x="250" y="340" as="targetPoint"/>
                    </mxGeometry>
                </mxCell>
                <mxCell id="11" value="" style="endArrow=none;dashed=1;html=1;dashPattern=1 3;strokeWidth=2;entryX=0.179;entryY=0.905;entryDx=0;entryDy=0;entryPerimeter=0;" edge="1" parent="ML3krrQk0YiTmpszw3Px-1" target="0">
                    <mxGeometry width="50" height="50" relative="1" as="geometry">
                        <mxPoint x="110" y="390" as="sourcePoint"/>
                        <mxPoint x="288" y="390" as="targetPoint"/>
                    </mxGeometry>
                </mxCell>
                <mxCell id="12" value="内的&lt;div&gt;欲求&lt;/div&gt;" style="text;html=1;align=center;verticalAlign=middle;whiteSpace=wrap;rounded=0;fillColor=#dae8fc;strokeColor=#6c8ebf;" vertex="1" parent="ML3krrQk0YiTmpszw3Px-1">
                    <mxGeometry x="530" y="160" width="50" height="120" as="geometry"/>
                </mxCell>
                <mxCell id="13" value="外的&lt;div&gt;欲求&lt;/div&gt;" style="text;html=1;align=center;verticalAlign=middle;whiteSpace=wrap;rounded=0;fillColor=#f8cecc;strokeColor=#b85450;" vertex="1" parent="ML3krrQk0YiTmpszw3Px-1">
                    <mxGeometry x="530" y="290" width="50" height="151.26" as="geometry"/>
                </mxCell>
                <mxCell id="14" value="&lt;div&gt;&lt;span style=&quot;color: rgb(63, 63, 63); background-color: transparent;&quot;&gt;成長&lt;/span&gt;&lt;/div&gt;&lt;span style=&quot;color: rgb(63, 63, 63); background-color: transparent;&quot;&gt;欲求&lt;/span&gt;" style="text;html=1;align=center;verticalAlign=middle;whiteSpace=wrap;rounded=0;fillColor=#dae8fc;strokeColor=#6c8ebf;" vertex="1" parent="ML3krrQk0YiTmpszw3Px-1">
                    <mxGeometry x="600" y="160.63" width="50" height="59.37" as="geometry"/>
                </mxCell>
                <mxCell id="15" value="欠乏&lt;div&gt;欲求&lt;/div&gt;" style="text;html=1;align=center;verticalAlign=middle;whiteSpace=wrap;rounded=0;fillColor=#f8cecc;strokeColor=#b85450;" vertex="1" parent="ML3krrQk0YiTmpszw3Px-1">
                    <mxGeometry x="600" y="230" width="50" height="211.89" as="geometry"/>
                </mxCell>
            </root>
        </mxGraphModel>
    </diagram>
</mxfile>